<svg width="22" height="22" viewBox="0 0 22 22" fill="none" xmlns="http://www.w3.org/2000/svg">
<path d="M10.9273 2.15088C6.11214 2.15088 2.21289 6.05886 2.21289 10.874C2.21289 15.6892 6.11214 19.5972 10.9273 19.5972C15.7512 19.5972 19.6592 15.6892 19.6592 10.874C19.6592 6.05886 15.7512 2.15088 10.9273 2.15088ZM10.9361 17.8526C7.08042 17.8526 3.95752 14.7297 3.95752 10.874C3.95752 7.0184 7.08042 3.89551 10.9361 3.89551C14.7917 3.89551 17.9146 7.0184 17.9146 10.874C17.9146 14.7297 14.7917 17.8526 10.9361 17.8526Z" fill="#CBAA69"/>
<path d="M11.372 6.51221H10.0635V11.7461L14.6431 14.4939L15.2974 13.421L11.372 11.0919V6.51221Z" fill="#CBAA69"/>
</svg>
