<svg width="27" height="27" viewBox="0 0 27 27" fill="none" xmlns="http://www.w3.org/2000/svg">
<path d="M11.802 4.32845L11.3866 4.32889L11.3848 4.84076L11.4728 4.75351C11.6667 4.56112 12.0005 4.74009 11.9464 5.00855L11.7705 5.83632C11.7434 5.98845 11.9283 6.09136 12.0411 5.9795L13.2408 4.78931C13.3626 4.6685 13.5566 4.65508 13.6874 4.76694C13.8272 4.88775 13.8317 5.09804 13.7009 5.2278L11.545 7.36656H11.6081C11.8787 7.36656 12.0952 7.59028 12.0952 7.87664C12.0952 7.95718 12.0767 8.03459 12.0433 8.1026L12.0442 8.43728L12.0479 9.27041C12.0497 9.88698 12.051 10.547 12.0488 10.696C12.0465 10.8772 12.1187 11.0302 12.3086 11.2785C12.3401 11.3188 12.3681 11.3474 12.4051 11.3832L12.4267 11.4029C12.4628 11.436 12.5097 11.4799 12.5602 11.5336C14.2079 13.3103 14.8271 15.1677 14.8271 17.3046V22.0833C14.8257 22.3234 14.7289 22.5532 14.5578 22.723C14.3866 22.8928 14.1549 22.9888 13.9129 22.9902L12.7023 22.992H12.6924C10.7042 22.9956 6.98541 23.0023 6.73689 22.9992C6.49565 22.9966 6.2651 22.9 6.09493 22.7304C5.92476 22.5607 5.82859 22.3316 5.82715 22.0922L5.82715 17.3136C5.82715 15.1775 6.45364 13.322 8.09993 11.5465C8.14282 11.5005 8.18751 11.4562 8.23388 11.4136L8.25644 11.3931C8.29227 11.3605 8.32517 11.3248 8.35476 11.2866C8.5451 11.0396 8.61907 10.8848 8.61907 10.696L8.61997 8.18045C8.55656 8.09166 8.52266 7.98546 8.523 7.87664C8.523 7.59923 8.74401 7.37103 9.01463 7.37103L9.09582 7.37103L6.93535 5.2278C6.80906 5.10252 6.81357 4.89222 6.94888 4.76694C7.07968 4.65508 7.27363 4.6685 7.39541 4.78931L8.69439 6.07793C8.79362 6.17637 8.96502 6.10478 8.96051 5.96607L8.96502 5.2278C8.96554 5.18755 8.97476 5.14788 8.99205 5.11146C9.00934 5.07505 9.0343 5.04273 9.06525 5.01669C9.0962 4.99066 9.13241 4.97151 9.17145 4.96053C9.21049 4.94956 9.25145 4.94701 9.29157 4.95307L9.29337 4.32845L8.83376 4.32889C8.68943 4.32889 8.57216 4.22151 8.57216 4.07833L8.57216 3.25504C8.57416 3.18766 8.60265 3.12373 8.65153 3.07691C8.70041 3.03009 8.76582 3.00409 8.83376 3.00447L11.7971 3C11.9414 3 12.0587 3.10739 12.0587 3.25057V4.0828C12.0587 4.21703 11.9464 4.32845 11.802 4.32845ZM9.25684 10.696C9.25594 11.0978 9.07642 11.3913 8.86218 11.6709C8.84459 11.6937 8.8279 11.7139 8.81121 11.7331L10.149 12.7255C10.2527 12.8016 10.3921 12.8021 10.4954 12.7255L11.8503 11.7233C11.8332 11.7032 11.8166 11.6826 11.8007 11.6615C11.5887 11.3859 11.4047 11.0879 11.4105 10.6866C11.4123 10.2154 11.4118 9.74425 11.4092 9.2731L11.406 8.44041V8.38672L9.25774 8.39075L9.25684 10.696ZM7.70482 21.0233L12.8872 21.0188C12.9955 21.0188 13.0857 20.9293 13.0857 20.822L13.0902 17.8554C13.0897 17.8034 13.0687 17.7536 13.0315 17.7167C12.9944 17.6799 12.9442 17.659 12.8917 17.6586L7.70933 17.663C7.60108 17.663 7.51087 17.7525 7.51087 17.8599L7.50636 20.8264C7.50636 20.9338 7.59657 21.0233 7.70482 21.0233Z" fill="#FFFAE5"/>
<path d="M13.7731 7.54554C13.6929 7.62504 13.5842 7.66971 13.4709 7.66971C13.3575 7.66971 13.2488 7.62504 13.1687 7.54554C13.0885 7.46603 13.0435 7.35819 13.0435 7.24575C13.0435 7.13331 13.0885 7.02547 13.1687 6.94597C13.2488 6.86646 13.3575 6.82179 13.4709 6.82179C13.5842 6.82179 13.6929 6.86646 13.7731 6.94597C13.8532 7.02547 13.8982 7.13331 13.8982 7.24575C13.8982 7.35819 13.8532 7.46603 13.7731 7.54554ZM7.6119 7.68872C7.49228 7.80738 7.33004 7.87405 7.16087 7.87405C6.99169 7.87405 6.82945 7.80738 6.70983 7.68872C6.59021 7.57005 6.523 7.4091 6.523 7.24128C6.523 7.07345 6.59021 6.91251 6.70983 6.79384C6.82945 6.67517 6.99169 6.6085 7.16087 6.6085C7.33004 6.6085 7.49228 6.67517 7.6119 6.79384C7.73153 6.91251 7.79873 7.07345 7.79873 7.24128C7.79873 7.4091 7.73153 7.57005 7.6119 7.68872Z" fill="#FFFAE5"/>
<path d="M16.154 12.0001C16.0551 11.9983 15.96 12.0376 15.8894 12.1095C15.8188 12.1814 15.7786 12.28 15.7776 12.3834L15.7404 16.2853C15.7329 17.0457 15.9908 17.785 16.4657 18.3642C16.9406 18.9434 17.5998 19.3227 18.3195 19.4309L18.2933 22.1856L17.1753 22.1652C17.0764 22.1634 16.9812 22.2027 16.9107 22.2746C16.8401 22.3465 16.7999 22.4451 16.7989 22.5486C16.7979 22.652 16.8362 22.752 16.9054 22.8264C16.9746 22.9009 17.069 22.9437 17.1678 22.9455L20.1491 22.9999C20.248 23.0017 20.3432 22.9624 20.4137 22.8905C20.4843 22.8186 20.5245 22.72 20.5255 22.6166C20.5265 22.5131 20.4882 22.4131 20.419 22.3387C20.3498 22.2642 20.2554 22.2214 20.1566 22.2196L19.0386 22.1992L19.0648 19.4445C19.7864 19.3626 20.4526 19.0075 20.9383 18.4458C21.4241 17.8841 21.696 17.1545 21.703 16.3941L21.7402 12.4923C21.7412 12.3888 21.7029 12.2888 21.6337 12.2144C21.5645 12.1399 21.4701 12.0971 21.3713 12.0953L16.154 12.0001ZM16.5043 14.3479L16.5192 12.7872L20.9912 12.8688L20.9763 14.4296L16.5043 14.3479ZM20.7602 16.2231C20.7081 16.6727 20.5214 17.0924 20.2267 17.4221C19.9321 17.7518 19.5446 17.9746 19.1198 18.0586C19.0227 18.0777 18.9221 18.0556 18.84 17.9972C18.758 17.9387 18.7012 17.8487 18.6822 17.747C18.6632 17.6452 18.6835 17.54 18.7387 17.4545C18.7939 17.369 18.8795 17.3102 18.9765 17.2911C19.2467 17.2376 19.4932 17.0959 19.6806 16.8862C19.8681 16.6766 19.9869 16.4097 20.0201 16.1237C20.026 16.0729 20.0414 16.0239 20.0654 15.9794C20.0894 15.9349 20.1216 15.8959 20.1601 15.8646C20.1986 15.8332 20.2427 15.8102 20.2898 15.7968C20.337 15.7834 20.3862 15.7798 20.4348 15.7863C20.4834 15.7929 20.5304 15.8093 20.573 15.8348C20.6157 15.8603 20.6532 15.8943 20.6834 15.9348C20.7136 15.9754 20.7359 16.0217 20.7491 16.0712C20.7623 16.1206 20.766 16.1723 20.7602 16.2231Z" fill="#FFFAE5"/>
</svg>
