<svg width="21" height="21" viewBox="0 0 21 21" fill="none" xmlns="http://www.w3.org/2000/svg">
<path d="M7 12.25C6.75208 12.25 6.54413 12.166 6.37613 11.998C6.20871 11.8306 6.125 11.6229 6.125 11.375C6.125 11.1271 6.20871 10.9191 6.37613 10.7511C6.54413 10.5837 6.75208 10.5 7 10.5C7.24792 10.5 7.45588 10.5837 7.62388 10.7511C7.79129 10.9191 7.875 11.1271 7.875 11.375C7.875 11.6229 7.79129 11.8306 7.62388 11.998C7.45588 12.166 7.24792 12.25 7 12.25ZM10.5 12.25C10.2521 12.25 10.0444 12.166 9.877 11.998C9.709 11.8306 9.625 11.6229 9.625 11.375C9.625 11.1271 9.709 10.9191 9.877 10.7511C10.0444 10.5837 10.2521 10.5 10.5 10.5C10.7479 10.5 10.9559 10.5837 11.1239 10.7511C11.2913 10.9191 11.375 11.1271 11.375 11.375C11.375 11.6229 11.2913 11.8306 11.1239 11.998C10.9559 12.166 10.7479 12.25 10.5 12.25ZM14 12.25C13.7521 12.25 13.5444 12.166 13.377 11.998C13.209 11.8306 13.125 11.6229 13.125 11.375C13.125 11.1271 13.209 10.9191 13.377 10.7511C13.5444 10.5837 13.7521 10.5 14 10.5C14.2479 10.5 14.4556 10.5837 14.623 10.7511C14.791 10.9191 14.875 11.1271 14.875 11.375C14.875 11.6229 14.791 11.8306 14.623 11.998C14.4556 12.166 14.2479 12.25 14 12.25ZM4.375 19.25C3.89375 19.25 3.48162 19.0788 3.13862 18.7364C2.79621 18.3934 2.625 17.9812 2.625 17.5V5.25C2.625 4.76875 2.79621 4.35692 3.13862 4.0145C3.48162 3.6715 3.89375 3.5 4.375 3.5H5.25V1.75H7V3.5H14V1.75H15.75V3.5H16.625C17.1063 3.5 17.5184 3.6715 17.8614 4.0145C18.2038 4.35692 18.375 4.76875 18.375 5.25V17.5C18.375 17.9812 18.2038 18.3934 17.8614 18.7364C17.5184 19.0788 17.1063 19.25 16.625 19.25H4.375ZM4.375 17.5H16.625V8.75H4.375V17.5Z" fill="#CBAA69"/>
</svg>
