<svg width="27" height="27" viewBox="0 0 27 27" fill="none" xmlns="http://www.w3.org/2000/svg">
<g clip-path="url(#clip0_800_1945)">
<path d="M10.5772 3.14221C10.5772 2.56173 10.0872 2.09473 9.47798 2.09473C8.8688 2.09473 8.37872 2.56173 8.37872 3.14221V4.88803H6.54661C4.92977 4.88803 3.61523 6.14065 3.61523 7.68133V8.37965V10.4746V21.6478C3.61523 23.1885 4.92977 24.4411 6.54661 24.4411H21.2035C22.8203 24.4411 24.1348 23.1885 24.1348 21.6478V10.4746V8.37965V7.68133C24.1348 6.14065 22.8203 4.88803 21.2035 4.88803H19.3714V3.14221C19.3714 2.56173 18.8813 2.09473 18.2721 2.09473C17.6629 2.09473 17.1728 2.56173 17.1728 3.14221V4.88803H10.5772V3.14221ZM5.81376 10.4746H9.47798V12.9188H5.81376V10.4746ZM5.81376 15.0137H9.47798V17.807H5.81376V15.0137ZM11.6765 15.0137H16.0736V17.807H11.6765V15.0137ZM18.2721 15.0137H21.9363V17.807H18.2721V15.0137ZM21.9363 12.9188H18.2721V10.4746H21.9363V12.9188ZM21.9363 19.902V21.6478C21.9363 22.0319 21.6065 22.3462 21.2035 22.3462H18.2721V19.902H21.9363ZM16.0736 19.902V22.3462H11.6765V19.902H16.0736ZM9.47798 19.902V22.3462H6.54661C6.14354 22.3462 5.81376 22.0319 5.81376 21.6478V19.902H9.47798ZM16.0736 12.9188H11.6765V10.4746H16.0736V12.9188Z" fill="#FFFAE5"/>
</g>
<defs>
<clipPath id="clip0_800_1945">
<rect width="20.5196" height="22.3464" fill="white" transform="translate(3.61523 2.09473)"/>
</clipPath>
</defs>
</svg>
