<svg width="21" height="21" viewBox="0 0 21 21" fill="none" xmlns="http://www.w3.org/2000/svg">
<path d="M12.9213 2.02148H9.6199C8.12434 2.02148 6.93908 2.02148 6.0124 2.14696C5.05775 2.27583 4.28538 2.54714 3.67664 3.15842C3.06705 3.7697 2.7966 4.54546 2.66858 5.50351C2.54395 6.43442 2.54395 7.62392 2.54395 9.12542V14.075C2.54395 15.3535 3.32395 16.4489 4.43205 16.9085C4.37525 16.1369 4.37525 15.056 4.37525 14.1556V9.90796C4.37525 8.8219 4.37525 7.88505 4.47529 7.13557C4.58297 6.33183 4.82545 5.56201 5.44775 4.93716C6.07005 4.31231 6.83734 4.06898 7.63768 3.96046C8.38377 3.86042 9.31638 3.86042 10.3991 3.86042H13.0019C14.0837 3.86042 15.0146 3.86042 15.7616 3.96046C15.5377 3.38934 15.147 2.89889 14.6404 2.55303C14.1338 2.20717 13.5348 2.02194 12.9213 2.02148Z" fill="#FFFAE5"/>
<path d="M5.5957 9.98892C5.5957 7.67774 5.5957 6.52215 6.31127 5.80405C7.02599 5.08594 8.17649 5.08594 10.4792 5.08594H12.9209C15.2228 5.08594 16.3741 5.08594 17.0897 5.80405C17.8044 6.52215 17.8044 7.67774 17.8044 9.98892V14.0754C17.8044 16.3866 17.8044 17.5422 17.0897 18.2603C16.3741 18.9784 15.2228 18.9784 12.9209 18.9784H10.4792C8.17733 18.9784 7.02599 18.9784 6.31127 18.2603C5.5957 17.5422 5.5957 16.3866 5.5957 14.0754V9.98892Z" fill="#FFFAE5"/>
</svg>
