<svg width="27" height="27" viewBox="0 0 27 27" fill="none" xmlns="http://www.w3.org/2000/svg">
<g clip-path="url(#clip0_7001_1795)">
<path d="M22.1476 10.0859L20.4238 8.36203C20.2847 8.22483 20.0992 8.14471 19.904 8.13748C19.7088 8.13025 19.5179 8.19643 19.3691 8.32297C19.1393 8.51857 18.8444 8.6207 18.5428 8.60913C18.2413 8.59755 17.9551 8.47311 17.7409 8.26047C17.5284 8.04636 17.404 7.76024 17.3925 7.45878C17.3809 7.15732 17.4829 6.86251 17.6784 6.63274C17.805 6.48389 17.8712 6.29303 17.8639 6.0978C17.8567 5.90257 17.7766 5.71713 17.6394 5.57805L15.914 3.85227C15.7682 3.70674 15.5706 3.625 15.3646 3.625C15.1586 3.625 14.961 3.70674 14.8152 3.85227L12.0671 6.59992C11.8974 6.77019 11.7695 6.97742 11.6933 7.20539C11.6784 7.24922 11.6537 7.28904 11.621 7.32176C11.5883 7.35448 11.5484 7.37922 11.5046 7.39406C11.2766 7.47028 11.0693 7.59838 10.8991 7.76828L3.85227 14.8152C3.70674 14.961 3.625 15.1586 3.625 15.3646C3.625 15.5706 3.70674 15.7682 3.85227 15.914L5.57805 17.6378C5.71713 17.775 5.90257 17.8551 6.0978 17.8624C6.29303 17.8696 6.48389 17.8034 6.63274 17.6769C6.86199 17.4797 7.15729 17.3764 7.45946 17.3878C7.76163 17.3991 8.04836 17.5242 8.26218 17.7381C8.476 17.9519 8.60111 18.2386 8.61246 18.5408C8.62381 18.8429 8.52054 19.1382 8.32336 19.3675C8.19682 19.5163 8.13064 19.7072 8.13787 19.9024C8.1451 20.0977 8.22522 20.2831 8.36242 20.4222L10.0863 22.146C10.2321 22.2915 10.4297 22.3733 10.6357 22.3733C10.8417 22.3733 11.0393 22.2915 11.1851 22.146L18.232 15.0991C18.4018 14.9291 18.5299 14.722 18.6062 14.4941C18.6209 14.4501 18.6457 14.4101 18.6785 14.3773C18.7113 14.3445 18.7513 14.3198 18.7952 14.305C19.0231 14.2288 19.2302 14.1008 19.4003 13.9312L22.148 11.1831C22.293 11.0373 22.3743 10.84 22.3743 10.6344C22.3742 10.4288 22.2927 10.2316 22.1476 10.0859ZM13.2269 8.92766C13.1688 8.98571 13.0999 9.03176 13.0241 9.06318C12.9483 9.09459 12.867 9.11077 12.7849 9.11077C12.7028 9.11077 12.6215 9.09459 12.5457 9.06318C12.4698 9.03176 12.4009 8.98571 12.3429 8.92766L11.8933 8.47805C11.7789 8.36025 11.7155 8.20218 11.7167 8.03801C11.718 7.87383 11.7838 7.71674 11.8999 7.60067C12.016 7.48461 12.1731 7.41889 12.3373 7.41773C12.5015 7.41656 12.6595 7.48005 12.7773 7.59445L13.2269 8.04367C13.2849 8.10171 13.331 8.17062 13.3624 8.24645C13.3938 8.32229 13.41 8.40358 13.41 8.48566C13.41 8.56775 13.3938 8.64904 13.3624 8.72487C13.331 8.80071 13.2849 8.86962 13.2269 8.92766ZM14.9456 10.6464C14.8284 10.7635 14.6695 10.8293 14.5038 10.8293C14.3381 10.8293 14.1792 10.7635 14.062 10.6464L13.6323 10.2167C13.5151 10.0995 13.4493 9.94051 13.4493 9.77473C13.4493 9.60895 13.5151 9.44996 13.6323 9.33273C13.7496 9.21551 13.9086 9.14966 14.0743 9.14966C14.2401 9.14966 14.3991 9.21551 14.5163 9.33273L14.946 9.76242C15.0043 9.82046 15.0505 9.88942 15.0821 9.96535C15.1136 10.0413 15.1299 10.1227 15.1299 10.2049C15.1299 10.2871 15.1138 10.3686 15.0823 10.4445C15.0508 10.5205 15.0046 10.5895 14.9464 10.6476L14.9456 10.6464ZM16.6644 12.3652C16.6063 12.4232 16.5374 12.4693 16.4616 12.5007C16.3858 12.5321 16.3045 12.5483 16.2224 12.5483C16.1403 12.5483 16.059 12.5321 15.9832 12.5007C15.9073 12.4693 15.8384 12.4232 15.7804 12.3652L15.3507 11.9355C15.2363 11.8177 15.1729 11.6596 15.1742 11.4954C15.1754 11.3313 15.2412 11.1742 15.3573 11.0581C15.4734 10.942 15.6306 10.8763 15.7947 10.8751C15.9589 10.874 16.1169 10.9375 16.2347 11.0519L16.6644 11.4816C16.7228 11.5395 16.7692 11.6084 16.8009 11.6843C16.8326 11.7602 16.8491 11.8417 16.8492 11.9239C16.8494 12.0062 16.8334 12.0877 16.802 12.1638C16.7706 12.2398 16.7245 12.3089 16.6663 12.3671L16.6644 12.3652ZM18.3999 14.105C18.3419 14.1631 18.273 14.2091 18.1971 14.2405C18.1213 14.2719 18.04 14.2881 17.9579 14.2881C17.8758 14.2881 17.7946 14.2719 17.7187 14.2405C17.6429 14.2091 17.574 14.1631 17.5159 14.105L17.0691 13.6558C17.0098 13.5979 16.9626 13.5288 16.9303 13.4526C16.8979 13.3763 16.8811 13.2944 16.8807 13.2116C16.8803 13.1287 16.8964 13.0466 16.928 12.9701C16.9596 12.8935 17.0061 12.824 17.0648 12.7656C17.1235 12.7071 17.1933 12.661 17.27 12.6297C17.3467 12.5985 17.4289 12.5828 17.5117 12.5836C17.5945 12.5844 17.6764 12.6017 17.7525 12.6344C17.8286 12.6671 17.8974 12.7146 17.955 12.7741L18.4023 13.223C18.4603 13.281 18.5063 13.35 18.5377 13.4258C18.5691 13.5017 18.5852 13.583 18.5852 13.665C18.5851 13.7471 18.5689 13.8284 18.5375 13.9042C18.506 13.9801 18.46 14.0489 18.4019 14.107L18.3999 14.105Z" fill="#FFFAE5"/>
</g>
<defs>
<clipPath id="clip0_7001_1795">
<rect width="20" height="20" fill="white" transform="translate(3 3)"/>
</clipPath>
</defs>
</svg>
