<svg width="29" height="28" viewBox="0 0 29 28" fill="none" xmlns="http://www.w3.org/2000/svg">
<path d="M23.8333 7.00033H5.16667V4.66699H23.8333V7.00033ZM15.6667 18.0837C15.6667 19.4137 16.1683 20.837 16.8333 22.167V23.3337H5.16667V16.3337H4V14.0003L5.16667 8.16699H23.8333L24.65 12.2503C23.8333 11.877 22.9933 11.667 22.0833 11.667C18.5833 11.667 15.6667 14.5837 15.6667 18.0837ZM14.5 16.3337H7.5V21.0003H14.5V16.3337ZM26.1667 18.0837C26.1667 21.117 22.0833 25.667 22.0833 25.667C22.0833 25.667 18 21.117 18 18.0837C18 15.867 19.8667 14.0003 22.0833 14.0003C24.3 14.0003 26.1667 15.867 26.1667 18.0837ZM23.4833 18.2003C23.4833 17.5003 22.7833 16.8003 22.0833 16.8003C21.3833 16.8003 20.6833 17.3837 20.6833 18.2003C20.6833 18.9003 21.2667 19.6003 22.0833 19.6003C22.9 19.6003 23.6 18.9003 23.4833 18.2003Z" fill="#FFFAE5"/>
</svg>
