<svg width="27" height="27" viewBox="0 0 27 27" fill="none" xmlns="http://www.w3.org/2000/svg">
<path d="M4 3.02497V23H23.9694V17.0574C24.0102 16.8766 24.0102 16.6889 23.9694 16.5081V3H4V3.02497ZM6.49618 5.52185H21.4732V15.5094H17.729C17.6542 15.5026 17.5791 15.5026 17.5043 15.5094C17.1733 15.5392 16.8677 15.6993 16.6547 15.9545C16.4417 16.2097 16.3388 16.5391 16.3686 16.8702C16.3984 17.2013 16.5584 17.507 16.8135 17.72C17.0687 17.9331 17.398 18.036 17.729 18.0062H21.4732V20.5031H6.49618V5.52185ZM12.7366 8.01873C10.6648 8.01873 8.99236 9.69164 8.99236 11.764C8.99236 14.2609 12.7366 18.0062 12.7366 18.0062C12.7366 18.0062 16.4809 14.2609 16.4809 11.764C16.4809 9.69164 14.8084 8.01873 12.7366 8.01873ZM12.7366 10.5156C13.4356 10.5156 13.9847 11.0649 13.9847 11.764C13.9847 12.4632 13.4356 13.0125 12.7366 13.0125C12.0377 13.0125 11.4885 12.4632 11.4885 11.764C11.4885 11.0649 12.0377 10.5156 12.7366 10.5156Z" fill="#FFFAE5"/>
</svg>
