<svg width="21" height="21" viewBox="0 0 21 21" fill="none" xmlns="http://www.w3.org/2000/svg">
<path d="M6.97877 12.2119C6.73161 12.2119 6.52429 12.1282 6.35681 11.9607C6.1899 11.7938 6.10645 11.5868 6.10645 11.3396C6.10645 11.0925 6.1899 10.8851 6.35681 10.7177C6.52429 10.5508 6.73161 10.4673 6.97877 10.4673C7.22593 10.4673 7.43325 10.5508 7.60073 10.7177C7.76763 10.8851 7.85109 11.0925 7.85109 11.3396C7.85109 11.5868 7.76763 11.7938 7.60073 11.9607C7.43325 12.1282 7.22593 12.2119 6.97877 12.2119ZM10.468 12.2119C10.2209 12.2119 10.0138 12.1282 9.84695 11.9607C9.67946 11.7938 9.59572 11.5868 9.59572 11.3396C9.59572 11.0925 9.67946 10.8851 9.84695 10.7177C10.0138 10.5508 10.2209 10.4673 10.468 10.4673C10.7152 10.4673 10.9225 10.5508 11.09 10.7177C11.2569 10.8851 11.3404 11.0925 11.3404 11.3396C11.3404 11.5868 11.2569 11.7938 11.09 11.9607C10.9225 12.1282 10.7152 12.2119 10.468 12.2119ZM13.9573 12.2119C13.7101 12.2119 13.5031 12.1282 13.3362 11.9607C13.1687 11.7938 13.085 11.5868 13.085 11.3396C13.085 11.0925 13.1687 10.8851 13.3362 10.7177C13.5031 10.5508 13.7101 10.4673 13.9573 10.4673C14.2045 10.4673 14.4115 10.5508 14.5784 10.7177C14.7459 10.8851 14.8296 11.0925 14.8296 11.3396C14.8296 11.5868 14.7459 11.7938 14.5784 11.9607C14.4115 12.1282 14.2045 12.2119 13.9573 12.2119ZM4.36182 19.1905C3.88205 19.1905 3.47119 19.0198 3.12924 18.6784C2.78787 18.3365 2.61719 17.9256 2.61719 17.4458V5.23341C2.61719 4.75363 2.78787 4.34306 3.12924 4.00169C3.47119 3.65975 3.88205 3.48877 4.36182 3.48877H5.23414V1.74414H6.97877V3.48877H13.9573V1.74414H15.7019V3.48877H16.5742C17.054 3.48877 17.4649 3.65975 17.8068 4.00169C18.1482 4.34306 18.3189 4.75363 18.3189 5.23341V17.4458C18.3189 17.9256 18.1482 18.3365 17.8068 18.6784C17.4649 19.0198 17.054 19.1905 16.5742 19.1905H4.36182ZM4.36182 17.4458H16.5742V8.72267H4.36182V17.4458Z" fill="url(#paint0_linear_270_2338)"/>
<defs>
<linearGradient id="paint0_linear_270_2338" x1="10.468" y1="1.74414" x2="10.468" y2="19.1905" gradientUnits="userSpaceOnUse">
<stop stop-color="#F7D99A"/>
<stop offset="1" stop-color="#C3A266"/>
</linearGradient>
</defs>
</svg>
