<svg width="24" height="25" viewBox="0 0 24 25" fill="none" xmlns="http://www.w3.org/2000/svg">
<path d="M17.5 5.09326C15.55 5.09326 13.45 5.49326 12 6.59326C10.55 5.49326 8.45 5.09326 6.5 5.09326C5.05 5.09326 3.51 5.31326 2.22 5.88326C1.49 6.21326 1 6.92326 1 7.73326V19.0133C1 20.3133 2.22 21.2733 3.48 20.9533C4.46 20.7033 5.5 20.5933 6.5 20.5933C8.06 20.5933 9.72 20.8533 11.06 21.5133C11.66 21.8133 12.34 21.8133 12.93 21.5133C14.27 20.8433 15.93 20.5933 17.49 20.5933C18.49 20.5933 19.53 20.7033 20.51 20.9533C21.77 21.2833 22.99 20.3233 22.99 19.0133V7.73326C22.99 6.92326 22.5 6.21326 21.77 5.88326C20.49 5.31326 18.95 5.09326 17.5 5.09326ZM21 17.8233C21 18.4533 20.42 18.9133 19.8 18.8033C19.05 18.6633 18.27 18.6033 17.5 18.6033C15.8 18.6033 13.35 19.2533 12 20.1033V8.59326C13.35 7.74326 15.8 7.09326 17.5 7.09326C18.42 7.09326 19.33 7.18326 20.2 7.37326C20.66 7.47326 21 7.88326 21 8.35326V17.8233Z" fill="#FFFAE5"/>
<path d="M13.9799 11.6034C13.6599 11.6034 13.3699 11.4034 13.2699 11.0834C13.1399 10.6934 13.3599 10.2634 13.7499 10.1434C15.2899 9.64336 17.2799 9.48336 19.1099 9.69336C19.5199 9.74336 19.8199 10.1134 19.7699 10.5234C19.7199 10.9334 19.3499 11.2334 18.9399 11.1834C17.3199 10.9934 15.5499 11.1434 14.2099 11.5734C14.1299 11.5834 14.0499 11.6034 13.9799 11.6034ZM13.9799 14.2634C13.6599 14.2634 13.3699 14.0634 13.2699 13.7434C13.1399 13.3534 13.3599 12.9234 13.7499 12.8034C15.2799 12.3034 17.2799 12.1434 19.1099 12.3534C19.5199 12.4034 19.8199 12.7734 19.7699 13.1834C19.7199 13.5934 19.3499 13.8934 18.9399 13.8434C17.3199 13.6534 15.5499 13.8034 14.2099 14.2334C14.1347 14.2525 14.0575 14.2626 13.9799 14.2634ZM13.9799 16.9234C13.6599 16.9234 13.3699 16.7234 13.2699 16.4034C13.1399 16.0134 13.3599 15.5834 13.7499 15.4634C15.2799 14.9634 17.2799 14.8034 19.1099 15.0134C19.5199 15.0634 19.8199 15.4334 19.7699 15.8434C19.7199 16.2534 19.3499 16.5434 18.9399 16.5034C17.3199 16.3134 15.5499 16.4634 14.2099 16.8934C14.1347 16.9125 14.0575 16.9226 13.9799 16.9234Z" fill="#FFFAE5"/>
</svg>
