<svg width="36" height="36" viewBox="0 0 36 36" fill="none" xmlns="http://www.w3.org/2000/svg">
<path fill-rule="evenodd" clip-rule="evenodd" d="M10.1 11.6C10.1 9.6 10.9 7.7 12.3 6.2C13.7 4.8 15.7 4 17.7 4C19.7 4 21.6 4.8 23.1 6.2C24.5 7.6 25.3 9.6 25.3 11.6V15.7L27.3 19.6C27.4 19.8 27.4 20 27.4 20.2C27.4 20.4 27.3 20.6 27.2 20.8C27.1 21 26.9 21.1 26.8 21.2C26.6 21.3 26.4 21.4 26.2 21.4H21.9C21.7 22.3 21.1 23.2 20.4 23.7C19.6 24.3 18.7 24.6 17.7 24.6C16.7 24.6 15.8 24.3 15 23.7C14.2 23.1 13.7 22.3 13.5 21.4H9.2C9 21.4 8.8 21.3 8.6 21.2C8.4 21.1 8.3 21 8.2 20.8C8.1 20.6 8 20.4 8 20.2C8 20 8 19.8 8.1 19.6L10.1 15.7V11.6ZM15.8 21.4C16 21.7 16.3 22 16.6 22.2C16.9 22.4 17.3 22.5 17.7 22.5C18.1 22.5 18.5 22.4 18.8 22.2C19.1 22 19.4 21.7 19.6 21.4H15.8ZM17.7 5.8C16.2 5.8 14.7 6.4 13.6 7.5C12.5 8.6 11.9 10 11.9 11.6V15.9C11.9 16.3 11.8 16.6 11.7 16.9L10.3 19.6H25L23.6 16.9C23.4 16.6 23.4 16.2 23.4 15.9V11.6C23.4 10.1 22.8 8.6 21.7 7.5C20.7 6.4 19.2 5.8 17.7 5.8Z" fill="#FFFEFE"/>
</svg>
