<svg width="24" height="24" viewBox="0 0 24 24" fill="none" xmlns="http://www.w3.org/2000/svg">
<path d="M5.70039 4.80005C4.82518 4.80005 3.98581 5.14773 3.36694 5.7666C2.74807 6.38547 2.40039 7.22483 2.40039 8.10005V9.60005H21.6004V8.10005C21.6004 7.22483 21.2527 6.38547 20.6338 5.7666C20.015 5.14773 19.1756 4.80005 18.3004 4.80005H5.70039ZM21.6004 10.8H2.40039V15.9C2.40039 16.7753 2.74807 17.6146 3.36694 18.2335C3.98581 18.8524 4.82518 19.2 5.70039 19.2H18.3004C19.1756 19.2 20.015 18.8524 20.6338 18.2335C21.2527 17.6146 21.6004 16.7753 21.6004 15.9V10.8ZM16.2004 15.6H18.6004C18.7595 15.6 18.9121 15.6633 19.0247 15.7758C19.1372 15.8883 19.2004 16.0409 19.2004 16.2C19.2004 16.3592 19.1372 16.5118 19.0247 16.6243C18.9121 16.7368 18.7595 16.8 18.6004 16.8H16.2004C16.0413 16.8 15.8886 16.7368 15.7761 16.6243C15.6636 16.5118 15.6004 16.3592 15.6004 16.2C15.6004 16.0409 15.6636 15.8883 15.7761 15.7758C15.8886 15.6633 16.0413 15.6 16.2004 15.6Z" fill="#FFFAE5"/>
</svg>
