<svg width="36" height="36" viewBox="0 0 36 36" fill="none" xmlns="http://www.w3.org/2000/svg">
<path d="M24.1404 24.6198C23.2604 24.8798 22.2204 24.9998 21.0004 24.9998H15.0004C13.7804 24.9998 12.7404 24.8798 11.8604 24.6198C12.0804 22.0198 14.7504 19.9697 18.0004 19.9697C21.2504 19.9697 23.9204 22.0198 24.1404 24.6198Z" stroke="#E6B863" stroke-width="1.5" stroke-linecap="round" stroke-linejoin="round"/>
<path d="M21 5H15C10 5 8 7 8 12V18C8 21.78 9.14 23.85 11.86 24.62C12.08 22.02 14.75 19.97 18 19.97C21.25 19.97 23.92 22.02 24.14 24.62C26.86 23.85 28 21.78 28 18V12C28 7 26 5 21 5ZM18 17.17C16.02 17.17 14.42 15.56 14.42 13.58C14.42 11.6 16.02 10 18 10C19.98 10 21.58 11.6 21.58 13.58C21.58 15.56 19.98 17.17 18 17.17Z" stroke="#E6B863" stroke-width="1.5" stroke-linecap="round" stroke-linejoin="round"/>
<path d="M21.5799 13.58C21.5799 15.56 19.9799 17.17 17.9999 17.17C16.0199 17.17 14.4199 15.56 14.4199 13.58C14.4199 11.6 16.0199 10 17.9999 10C19.9799 10 21.5799 11.6 21.5799 13.58Z" stroke="#E6B863" stroke-width="1.5" stroke-linecap="round" stroke-linejoin="round"/>
<rect x="6.5" y="31.5" width="23" height="1" rx="0.5" stroke="#E6B863"/>
</svg>
