<svg width="24" height="24" viewBox="0 0 24 24" fill="none" xmlns="http://www.w3.org/2000/svg">
<path d="M12 2.49927C12.3515 2.49927 12.6996 2.57362 13.0205 2.71704C13.3414 2.86046 13.6288 3.06946 13.8633 3.3313L14.5625 4.11353C14.7125 4.28132 14.8985 4.41307 15.1064 4.49927C15.3143 4.58542 15.539 4.62398 15.7637 4.61157L16.8145 4.55298C17.165 4.53382 17.5158 4.58874 17.8438 4.71411C18.1719 4.83961 18.4703 5.03307 18.7188 5.28149C18.9672 5.52997 19.1606 5.82828 19.2861 6.15649C19.4117 6.48471 19.4665 6.83589 19.4473 7.18677L19.3887 8.23657C19.3764 8.46113 19.4158 8.68608 19.502 8.8938C19.5881 9.10125 19.7193 9.28701 19.8867 9.43677L20.6699 10.137C20.9319 10.3714 21.1417 10.6588 21.2852 10.9797C21.4285 11.3005 21.5029 11.6479 21.5029 11.9993C21.5029 12.3509 21.4286 12.6988 21.2852 13.0198C21.1417 13.3408 20.9319 13.6281 20.6699 13.8625L19.8867 14.5627C19.7191 14.7127 19.5871 14.8989 19.501 15.1067C19.4149 15.3146 19.3762 15.5393 19.3887 15.7639L19.4473 16.8137C19.4665 17.1645 19.4116 17.5158 19.2861 17.844C19.1606 18.172 18.9671 18.4697 18.7188 18.718C18.4703 18.9665 18.172 19.1599 17.8438 19.2854C17.5155 19.4109 17.1643 19.4658 16.8135 19.4465L15.7637 19.3889H15.5957C15.428 19.3986 15.2623 19.4365 15.1064 19.5012C14.8989 19.5874 14.7133 19.7194 14.5635 19.887L13.8643 20.6692C13.6299 20.9311 13.3423 21.1409 13.0215 21.2844C12.7005 21.4279 12.3526 21.5022 12.001 21.5022C11.6494 21.5022 11.3015 21.4279 10.9805 21.2844C10.6596 21.1409 10.3721 20.9311 10.1377 20.6692H10.1367L9.43848 19.887C9.28852 19.7192 9.10236 19.5874 8.89453 19.5012C8.68654 19.415 8.46114 19.3764 8.23633 19.3889L7.18652 19.4465C6.83587 19.4657 6.48525 19.4108 6.15723 19.2854C5.829 19.1599 5.5307 18.9665 5.28223 18.718C5.03389 18.4697 4.84035 18.172 4.71484 17.844C4.58935 17.5158 4.53448 17.1645 4.55371 16.8137L4.61133 15.7639C4.62359 15.5394 4.58523 15.3144 4.49902 15.1067C4.41291 14.8992 4.28165 14.7135 4.11426 14.5637L3.33203 13.8635C3.07001 13.629 2.8603 13.3418 2.7168 13.0208C2.57331 12.6998 2.49902 12.3518 2.49902 12.0002C2.49907 11.6489 2.57343 11.3015 2.7168 10.9807C2.8603 10.6597 3.07003 10.3724 3.33203 10.1379L4.11328 9.43677C4.28098 9.28677 4.41385 9.10165 4.5 8.8938C4.58612 8.68593 4.62378 8.46123 4.61133 8.23657L4.55371 7.18677C4.53444 6.83589 4.58932 6.48472 4.71484 6.15649C4.84036 5.8283 5.03377 5.52995 5.28223 5.28149C5.53066 5.03312 5.8291 4.8396 6.15723 4.71411C6.48518 4.58876 6.83596 4.53379 7.18652 4.55298L8.23633 4.61157H8.2373C8.46168 4.62379 8.68599 4.58534 8.89355 4.49927C9.10127 4.41307 9.28663 4.28021 9.43652 4.11255L10.1377 3.33228V3.3313C10.3722 3.06946 10.6596 2.86045 10.9805 2.71704C11.3013 2.57367 11.6486 2.49932 12 2.49927ZM14.5 12.5002C13.9697 12.5003 13.4609 12.7112 13.0859 13.0862C12.711 13.4612 12.5 13.9699 12.5 14.5002V14.51C12.5 15.0403 12.711 15.549 13.0859 15.9241C13.4609 16.2991 13.9697 16.5099 14.5 16.51H14.5107C15.041 16.5099 15.5498 16.2991 15.9248 15.9241C16.2997 15.549 16.5107 15.0403 16.5107 14.51V14.5002C16.5107 13.9699 16.2997 13.4612 15.9248 13.0862C15.5498 12.7112 15.041 12.5003 14.5107 12.5002H14.5ZM15 7.50024C14.6024 7.50035 14.2207 7.65858 13.9395 7.9397L7.93359 13.9456C7.66036 14.2285 7.50928 14.6079 7.5127 15.0012C7.51622 15.3943 7.6742 15.7701 7.95215 16.0481C8.23026 16.3262 8.6067 16.4841 9 16.4875C9.39317 16.4909 9.77187 16.3398 10.0547 16.0667L16.0605 10.0608C16.3417 9.77954 16.5 9.39793 16.5 9.00024C16.5 8.6025 16.3418 8.22099 16.0605 7.9397C15.7793 7.65853 15.3977 7.50024 15 7.50024ZM9.5 7.50024C8.96971 7.50035 8.46092 7.7112 8.08594 8.08618C7.71104 8.46123 7.5 8.96994 7.5 9.50024V9.51001C7.5 10.0403 7.71101 10.549 8.08594 10.9241C8.46092 11.2991 8.96971 11.5099 9.5 11.51H9.51074C10.041 11.5099 10.5498 11.2991 10.9248 10.9241C11.2997 10.549 11.5107 10.0403 11.5107 9.51001V9.50024C11.5107 8.96993 11.2997 8.46123 10.9248 8.08618C10.5498 7.71119 10.041 7.50034 9.51074 7.50024H9.5Z" fill="#FFFAE5" stroke="#FFFAE5"/>
</svg>
